<?xml version="1.0" encoding="iso-8859-1"?>
<!-- Generator: Adobe Illustrator 23.0.6, SVG Export Plug-In . SVG Version: 6.00 Build 0)  -->
<svg version="1.1" id="Layer_1" xmlns="http://www.w3.org/2000/svg" xmlns:xlink="http://www.w3.org/1999/xlink" x="0px" y="0px"
	 width="19.376px" height="32.113px" viewBox="0 0 19.376 32.113" enable-background="new 0 0 19.376 32.113" xml:space="preserve">
<g>
	<path fill="#231039" d="M17.13,15.377h-0.953V6.489C16.178,2.911,13.266,0,9.688,0C6.11,0,3.199,2.911,3.199,6.489v8.889H2.246
		L0,17.624v12.244l2.247,2.245H17.13l2.247-2.245V17.624L17.13,15.377z M5.811,6.489c0-2.138,1.739-3.876,3.876-3.876
		c2.138,0,3.878,1.739,3.878,3.876v8.889H5.811V6.489z M16.764,28.786L16.049,29.5H3.328l-0.715-0.715v-10.08l0.716-0.716h12.72
		l0.716,0.716V28.786z"/>
	<path fill="#231039" d="M9.688,19.944c-1.298,0-2.351,1.053-2.351,2.35c0,1.071,0.72,1.964,1.698,2.249v2.454
		c0,0.361,0.292,0.653,0.653,0.653s0.653-0.292,0.653-0.653v-2.454c0.978-0.284,1.698-1.178,1.698-2.249
		C12.039,20.997,10.986,19.944,9.688,19.944z"/>
</g>
<g>
</g>
<g>
</g>
<g>
</g>
<g>
</g>
<g>
</g>
<g>
</g>
</svg>
