<?xml version="1.0" encoding="iso-8859-1"?>
<!-- Generator: Adobe Illustrator 23.0.6, SVG Export Plug-In . SVG Version: 6.00 Build 0)  -->
<svg version="1.1" id="Layer_1" xmlns="http://www.w3.org/2000/svg" xmlns:xlink="http://www.w3.org/1999/xlink" x="0px" y="0px"
	 width="111.409px" height="56.199px" viewBox="0 0 111.409 56.199" enable-background="new 0 0 111.409 56.199"
	 xml:space="preserve">
<g>
	<g>
	</g>
	<g>
	</g>
	<g>
		<path fill="#231039" d="M2.3,12.029h2.258l3.451,6.178h2.428l-3.6-6.326c2.279-0.427,3.664-2.109,3.664-4.282
			c0-2.492-1.768-4.494-4.623-4.494H0.191v15.103H2.3V12.029z M2.3,4.978h3.195C7.2,4.978,8.35,6,8.35,7.598
			c0,1.556-1.15,2.557-2.854,2.557H2.3V4.978z"/>
		<path fill="#231039" d="M23.541,14.095c0-1.683-1.001-3.216-2.727-3.643c1.321-0.489,2.258-1.64,2.258-3.259
			c0-2.386-1.683-4.09-4.558-4.09h-4.921v15.103h5.283C21.646,18.206,23.541,16.481,23.541,14.095z M15.681,4.936h2.514
			c1.726,0,2.77,0.938,2.77,2.364c0,1.406-1.001,2.407-2.684,2.407h-2.599V4.936z M18.578,16.374h-2.897v-4.878h2.982
			c1.832,0,2.748,1.022,2.748,2.471C21.411,15.437,20.261,16.374,18.578,16.374z"/>
		<path fill="#231039" d="M38.945,18.206L32.938,3.104h-2.407l-6.007,15.103h2.237l1.598-4.218h6.688l1.64,4.218H38.945z
			 M29.104,12.05l2.577-6.773l2.62,6.773H29.104z"/>
		<path fill="#231039" d="M47.32,18.526c3.472,0,5.858-2.023,6.667-4.856l-1.854-0.682c-0.618,2.066-2.236,3.621-4.814,3.621
			c-2.748,0-5.368-2.023-5.368-5.964c0-3.941,2.62-5.943,5.368-5.943c2.471,0,4.132,1.278,4.708,3.558l1.938-0.682
			c-0.767-2.919-3.195-4.793-6.646-4.793c-3.749,0-7.498,2.812-7.498,7.86C39.822,15.693,43.422,18.526,47.32,18.526z"/>
		<polygon fill="#231039" points="8.414,35.317 3.876,24.411 0,24.411 0,39.513 2.812,39.513 2.812,29.011 7.157,39.513 
			9.606,39.513 13.952,28.926 13.952,39.513 16.849,39.513 16.849,24.411 12.845,24.411 		"/>
		<path fill="#231039" d="M24.799,24.411l-5.794,15.103h3.11l1.257-3.451h6.135l1.257,3.451h3.195l-5.751-15.103H24.799z
			 M24.352,33.378l2.087-5.709l2.088,5.709H24.352z"/>
		<polygon fill="#231039" points="46.062,34.401 39.778,24.411 36.114,24.411 36.114,39.513 39.054,39.513 39.054,28.798 
			45.913,39.513 49.001,39.513 49.001,24.411 46.062,24.411 		"/>
		<path fill="#231039" d="M78.044,26.839c2.45,0,3.707,1.555,4.09,2.896l2.812-1.001c-0.746-2.322-2.94-4.644-6.902-4.644
			c-4.09,0-7.732,3.003-7.732,7.881s3.472,7.86,7.541,7.86c2.279,0,3.77-1.022,4.452-2.045l0.192,1.726h2.386v-7.86h-7.541v2.557
			h4.771c-0.17,1.064-1.257,2.939-4.047,2.939c-2.535,0-4.771-1.769-4.771-5.177C73.294,28.394,75.765,26.839,78.044,26.839z"/>
		<polygon fill="#231039" points="88.06,39.513 97.517,39.513 97.517,36.744 90.999,36.744 90.999,33.25 96.899,33.25 96.899,30.63 
			90.999,30.63 90.999,27.18 97.517,27.18 97.517,24.411 88.06,24.411 		"/>
		<path fill="#231039" d="M108.171,33.335c1.981-0.575,3.216-2.173,3.216-4.281c0-2.62-1.875-4.644-4.814-4.644h-5.9v15.103h2.96
			v-5.815h1.534l2.96,5.815h3.281L108.171,33.335z M106.02,31.162h-2.386v-4.196h2.386c1.491,0,2.365,0.831,2.365,2.109
			C108.384,30.311,107.511,31.162,106.02,31.162z"/>
		<path fill="#231039" d="M67.21,39.464v-8.889c0-3.578-2.911-6.489-6.49-6.489c-3.578,0-6.489,2.911-6.489,6.489v8.889h-0.952
			l-2.247,2.246v12.245l2.247,2.245h14.883l2.247-2.245V41.71l-2.246-2.246H67.21z M56.843,30.575c0-2.138,1.739-3.876,3.877-3.876
			c2.138,0,3.877,1.739,3.877,3.876v8.889h-7.754V30.575z M67.796,52.872l-0.715,0.715H54.36l-0.716-0.715v-10.08l0.716-0.716h12.72
			l0.716,0.716V52.872z"/>
		<path fill="#231039" d="M60.72,44.031c-1.298,0-2.351,1.053-2.351,2.35c0,1.071,0.72,1.964,1.698,2.249v2.454
			c0,0.361,0.292,0.653,0.653,0.653s0.653-0.292,0.653-0.653v-2.454c0.978-0.284,1.698-1.178,1.698-2.249
			C63.071,45.084,62.018,44.031,60.72,44.031z"/>
	</g>
</g>
<g>
</g>
<g>
</g>
<g>
</g>
<g>
</g>
<g>
</g>
<g>
</g>
</svg>
