<svg id="Background" xmlns="http://www.w3.org/2000/svg" viewBox="0 0 660 140"><defs><style>.cls-1{fill:#ff6c00;}.cls-2{fill:#23103a;}</style></defs><path class="cls-1" d="M553.86,54.3a28.7,28.7,0,1,0-57.39,0V87h42.66v21.5a14.53,14.53,0,1,1-29.06,0V93.08H502v15.46a22.58,22.58,0,1,0,45.16,0V87h6.68Zm-49.34,0a20.65,20.65,0,1,1,41.29,0V79H504.52Z"/><path class="cls-1" d="M525.17,46.8A8.28,8.28,0,0,0,522.86,63v8.66a2.31,2.31,0,0,0,4.61,0V63a8.28,8.28,0,0,0-2.3-16.23Z"/><path class="cls-2" d="M247.39,81.34V32.47h11.14v6.22c2.81-5,8.93-7.62,14.45-7.62,6.42,0,12,2.91,14.65,8.63,3.81-6.43,9.53-8.63,15.85-8.63,8.84,0,17.26,5.62,17.26,18.56V81.34H309.51V51.54c0-5.72-2.91-10-9.44-10-6.12,0-10.13,4.82-10.13,10.84v29H278.5V51.54c0-5.62-2.81-10-9.43-10-6.23,0-10.14,4.62-10.14,10.84v29Z"/><path class="cls-2" d="M347.23,53.34l12.55-1.9c2.81-.4,3.61-1.81,3.61-3.51,0-4.12-2.81-7.43-9.23-7.43-6.12,0-9.54,3.91-10,8.83l-10.64-2.41c.91-8.43,8.53-16,20.58-16,15.05,0,20.77,8.53,20.77,18.26V73.51a44.44,44.44,0,0,0,.6,7.83H364.59a27.26,27.26,0,0,1-.5-6.22c-2.31,3.71-7.12,7.73-15,7.73-10.24,0-16.56-7-16.56-14.75C332.48,59.37,338.9,54.55,347.23,53.34Zm16.16,7.73V58.86l-12.75,1.91c-3.61.6-6.52,2.61-6.52,6.62,0,3.31,2.51,6.33,7.13,6.33C357.77,73.72,363.39,70.6,363.39,61.07Z"/><path class="cls-2" d="M401,81.34H389.37V32.47h11.34V39c3.21-5.62,9-7.92,14.45-7.92,11.95,0,17.67,8.63,17.67,19.36V81.34H421.18V52.44c0-6-2.7-10.84-10-10.84-6.62,0-10.14,5.12-10.14,11.54Z"/><path class="cls-2" d="M459.72,53.34l12.54-1.9c2.81-.4,3.61-1.81,3.61-3.51,0-4.12-2.81-7.43-9.23-7.43-6.12,0-9.53,3.91-10,8.83L446,46.92c.9-8.43,8.53-16,20.57-16,15,0,20.77,8.53,20.77,18.26V73.51a44.44,44.44,0,0,0,.6,7.83H477.08a26.88,26.88,0,0,1-.51-6.22c-2.3,3.71-7.12,7.73-15.05,7.73-10.23,0-16.56-7-16.56-14.75C445,59.37,451.39,54.55,459.72,53.34Zm16.15,7.73V58.86l-12.74,1.91c-3.61.6-6.53,2.61-6.53,6.62,0,3.31,2.51,6.33,7.13,6.33C470.25,73.72,475.87,70.6,475.87,61.07Z"/><path class="cls-2" d="M607.63,67.39C605,75.92,597.3,82.85,585.55,82.85c-13.24,0-25-9.64-25-26.19C560.57,41.2,572,31,584.35,31c15,0,23.88,9.93,23.88,25.38a17.36,17.36,0,0,1-.3,3.72H572.21a13.08,13.08,0,0,0,13.34,12.74c7,0,10.64-3.71,12.25-8.53ZM596.49,51.54c-.2-5.72-4-10.84-12-10.84a11.73,11.73,0,0,0-11.94,10.84Z"/><path class="cls-2" d="M650,44a25.57,25.57,0,0,0-3.82-.3c-9,0-13.14,5.22-13.14,14.35V81.34H621.38V32.47h11.34V40.3c2.31-5.32,7.72-8.43,14.15-8.43a16.75,16.75,0,0,1,3.11.3Z"/><path class="cls-2" d="M38.75,44.36a24.48,24.48,0,0,0-3.83-.31c-9.07,0-13.21,5.24-13.21,14.42V81.85H10V32.76H21.41v7.87c2.32-5.35,7.76-8.47,14.21-8.47a16.81,16.81,0,0,1,3.13.3Z"/><path class="cls-2" d="M51.38,81.85v-73H62.87V38.81c2.22-3.83,7.87-7.36,15.43-7.36C93,31.45,101,42.64,101,57.06c0,14.81-8.77,26-23.09,26-7,0-12.29-3-15.12-7.76v6.55Zm24.6-40c-7.46,0-13.21,5.54-13.21,15.32S68.52,72.68,76,72.68c7.66,0,13.2-5.85,13.2-15.52S83.74,41.84,76,41.84Z"/><path class="cls-2" d="M124.4,53.73,137,51.81c2.83-.4,3.63-1.81,3.63-3.52,0-4.14-2.82-7.46-9.27-7.46-6.15,0-9.58,3.93-10.08,8.87l-10.68-2.42c.9-8.47,8.56-16,20.66-16,15.12,0,20.86,8.57,20.86,18.35V74a44.31,44.31,0,0,0,.61,7.86H141.83a27.5,27.5,0,0,1-.5-6.25c-2.32,3.73-7.16,7.76-15.12,7.76-10.28,0-16.63-7-16.63-14.81C109.58,59.78,116,54.94,124.4,53.73Zm16.22,7.76V59.27l-12.8,1.92c-3.63.6-6.55,2.62-6.55,6.65,0,3.33,2.52,6.35,7.16,6.35C135,74.19,140.62,71.07,140.62,61.49Z"/><path class="cls-2" d="M173.49,57.26c0,9.87,6.35,15.42,13.7,15.42a12.39,12.39,0,0,0,12.3-9.07l10.28,3.73c-2.32,7.66-9.67,16-22.58,16-14.41,0-25.4-11.19-25.4-26.1,0-15.12,11-26,25.1-26,13.21,0,20.46,8.27,22.48,16.13l-10.48,3.83C197.78,46.87,194.45,42,187,42,179.84,42,173.49,47.38,173.49,57.26Z"/><path class="cls-2" d="M411.19,94a2.29,2.29,0,0,0-2.08,1.07V91h-1.22v9.48h1.22v-.91a2.24,2.24,0,0,0,2,1.08c1.87,0,2.94-1.48,2.94-3.35S413.1,94,411.19,94ZM411,99.57a2,2,0,0,1-1.88-2.25A2,2,0,0,1,411,95.11c1.14,0,1.86.85,1.86,2.21S412.09,99.57,411,99.57Z"/><polygon class="cls-2" points="417.86 98.55 415.89 94.2 414.48 94.2 417.19 99.81 415.62 103.14 416.97 103.14 421.07 94.2 419.75 94.2 417.86 98.55"/><path class="cls-2" d="M425.07,100.89h1.1a.94.94,0,0,0,.94-.94v-3.3h1.57A1.33,1.33,0,0,0,430,95.34v-.58h-2.88V92.45h3.15a1.16,1.16,0,0,0,1.15-1.15v-.73h-6.34Z"/><path class="cls-2" d="M435.08,93.24A3.12,3.12,0,0,0,433,94a2.53,2.53,0,0,0-.89,1.89H434a.75.75,0,0,1,.31-.63,1.27,1.27,0,0,1,.79-.26,1,1,0,0,1,.79.26,1.22,1.22,0,0,1,.26.79v.26l-1.94.37a3.93,3.93,0,0,0-.95.21,3.09,3.09,0,0,0-.73.42,1.15,1.15,0,0,0-.52.63,2.15,2.15,0,0,0-.16.89,2.07,2.07,0,0,0,.63,1.57,2.37,2.37,0,0,0,1.68.63,2.33,2.33,0,0,0,2.14-1.15v.2a1,1,0,0,0,1,.84H438V96a2.62,2.62,0,0,0-.78-2A3.14,3.14,0,0,0,435.08,93.24Zm1,4.56a1.72,1.72,0,0,1-.27.89,1.37,1.37,0,0,1-.52.47,1.39,1.39,0,0,1-.68.16,1.09,1.09,0,0,1-.63-.16.5.5,0,0,1-.21-.47.66.66,0,0,1,.16-.52,1.55,1.55,0,0,1,.62-.26l1.53-.32Z"/><path class="cls-2" d="M440.9,90.09a1.07,1.07,0,0,0-.79.32,1,1,0,0,0-.37.84.9.9,0,0,0,.32.78,1.28,1.28,0,0,0,.84.32,1.2,1.2,0,0,0,.84-.32.94.94,0,0,0,.36-.78,1,1,0,0,0-.36-.84A1.2,1.2,0,0,0,440.9,90.09Z"/><path class="cls-2" d="M440,100.89h1a.94.94,0,0,0,.94-.94V93.4H440Z"/><path class="cls-2" d="M445.67,94.55l-.21-1.15h-1.68v7.49h1.05a.94.94,0,0,0,.94-.94V97.07a1.72,1.72,0,0,1,.58-1.42,2.27,2.27,0,0,1,1.47-.47V93.29a2.4,2.4,0,0,0-1.42.37A2.07,2.07,0,0,0,445.67,94.55Z"/><path class="cls-2" d="M456.89,98l-.16.78-.16-.78-1.26-4.51h-1.73L452.33,98l-.16.78L452,98l-1.15-4.51h-2.05l2.26,7.44h1.2a1,1,0,0,0,1-.68l1.2-3.72,1.37,4.4h1.31a1,1,0,0,0,.94-.68l2-6.76h-2Z"/><path class="cls-2" d="M462.23,90.09a1.16,1.16,0,0,0-.83.32.93.93,0,0,0-.37.79.81.81,0,0,0,.37.78,1.25,1.25,0,0,0,1.67,0,1,1,0,0,0,.37-.78,1.12,1.12,0,0,0-.37-.79A1.28,1.28,0,0,0,462.23,90.09Z"/><path class="cls-2" d="M461.24,100.89h1a.94.94,0,0,0,.95-.94V93.4h-1.94Z"/><path class="cls-2" d="M469.05,93.24a2.35,2.35,0,0,0-1.26.31,2.56,2.56,0,0,0-.79.84l-.15-1h-1.68v7.49h1a1,1,0,0,0,1-1V97a2,2,0,0,1,.37-1.36,1.1,1.1,0,0,1,.94-.47,1,1,0,0,1,.79.36,1.73,1.73,0,0,1,.26,1v4.4h.94a1,1,0,0,0,1-1V96a3.1,3.1,0,0,0-.63-2A2.24,2.24,0,0,0,469.05,93.24Z"/><path class="cls-2" d="M478.59,94.24a2.42,2.42,0,0,0-.89-.69,3.87,3.87,0,0,0-1.36-.26,3.31,3.31,0,0,0-2.52,1.1,4,4,0,0,0-1,2.78,5,5,0,0,0,.42,2,3.79,3.79,0,0,0,1.26,1.42,3,3,0,0,0,1.78.52,2.64,2.64,0,0,0,2.41-1.15l.06.21a1,1,0,0,0,.94.79h.84V90.15h-1.94Zm0,2.93a2.07,2.07,0,0,1-.58,1.52,1.79,1.79,0,0,1-1.31.58,1.63,1.63,0,0,1-1.36-.58,2.44,2.44,0,0,1,0-3,1.88,1.88,0,0,1,1.36-.58,1.8,1.8,0,0,1,.89.21,1.73,1.73,0,0,1,.68.69,1.92,1.92,0,0,1,.32,1.1Z"/><path class="cls-2" d="M487.4,97.17a3.47,3.47,0,0,0-1.89-.78,4.28,4.28,0,0,1-1.05-.32.56.56,0,0,1-.26-.52.68.68,0,0,1,.21-.53.67.67,0,0,1,.58-.21.74.74,0,0,1,.83.84h1.89a2.09,2.09,0,0,0-.79-1.73,2.86,2.86,0,0,0-1.93-.63,2.76,2.76,0,0,0-2.05.68,2.4,2.4,0,0,0-.73,1.73,1.79,1.79,0,0,0,.57,1.47,3.8,3.8,0,0,0,1.79.74,3,3,0,0,1,1,.36.76.76,0,0,1,.27.58.63.63,0,0,1-.27.52.86.86,0,0,1-.68.21,1.26,1.26,0,0,1-.78-.26l-.16-.16a1,1,0,0,0-.84-.52h-1.21a2.15,2.15,0,0,0,1.11,1.83,3.11,3.11,0,0,0,2.09.63,3.85,3.85,0,0,0,1.1-.15,2,2,0,0,0,.89-.42,1.65,1.65,0,0,0,.63-.74,2.38,2.38,0,0,0,.21-1.1A2,2,0,0,0,487.4,97.17Z"/></svg>